<?xml version="1.0" encoding="UTF-8"?>
<svg id="Layer_2" data-name="Layer 2" xmlns="http://www.w3.org/2000/svg" viewBox="0 0 479.46 558.4">
  <g id="Layer_1-2" data-name="Layer 1">
    <path d="M399.57,558.24l-130.96.17-190.34-.03-.03-36.27-37.73-.1.06-349.01h397.96s0,349.17,0,349.17l-38.95-.19-.02,36.26ZM158.82,501.68V214.02s-48.78.1-48.78.1v249.44s0,37.86,0,37.86l48.78.26ZM264,501.54l-.02-287.51-48.6-.04v287.56s48.62,0,48.62,0ZM369.26,501.47V214.03s-48.52,0-48.52,0v287.58s48.52-.13,48.52-.13ZM439.4,131.93H39.77s-.05,40.92-.05,40.92l-39.72-.07.09-81.99,39.75.23,40.36.87,39.15.44.13-52.22,19.31.32,20.06-.29.04-40.14,161.69.02.02,40.16,39.19.11v51.86s39.37-.52,39.37-.52l40.35-.69,39.92-.45.02,82.16-39.99.3-.07-41.02ZM319.59,92.27l-.1-52.09h-159.57s-.05,52.1-.05,52.1h159.72Z"/>
  </g>
</svg>